<svg xmlns="http://www.w3.org/2000/svg" width="110.19" height="34.621" viewBox="0 0 110.19 34.621"><defs><style>.a{fill:none;stroke:#7ae8e0;stroke-width:2px;}.b{fill:#cdfdfa;}</style></defs><g transform="translate(1 1)"><path class="a" d="M-67.938-26.925q-.156.287-.535,1.043a15.857,15.857,0,0,1-1.017,1.708,19.881,19.881,0,0,1-1.525,1.969,12.675,12.675,0,0,1-2.034,1.864,10.883,10.883,0,0,1-2.568,1.4,8.523,8.523,0,0,1-3.09.548,6.17,6.17,0,0,1-2.634-.535A5.546,5.546,0,0,1-83.3-20.445a6.746,6.746,0,0,1-1.226-2.308A9.811,9.811,0,0,1-84.94-25.7a9.467,9.467,0,0,1,.443-2.934,8.006,8.006,0,0,1,1.213-2.386,5.991,5.991,0,0,1,1.786-1.6,4.263,4.263,0,0,1,2.164-.587,3.954,3.954,0,0,1,1.565.3,3.6,3.6,0,0,1,1.186.8,3.864,3.864,0,0,1,.756,1.1,2.867,2.867,0,0,1,.274,1.2A3.83,3.83,0,0,1-75.7-28.75a3.825,3.825,0,0,1-.365.874,2.063,2.063,0,0,1-.508.6.937.937,0,0,1-.574.222.946.946,0,0,1-.717-.287.981.981,0,0,1-.274-.7.711.711,0,0,1,.091-.365q.091-.156.209-.326a1.866,1.866,0,0,0,.209-.417,1.877,1.877,0,0,0,.091-.639,1.3,1.3,0,0,0-.508-.991,1.893,1.893,0,0,0-1.291-.443,2.477,2.477,0,0,0-1.4.443,4.2,4.2,0,0,0-1.16,1.186,6.466,6.466,0,0,0-.8,1.747,7.388,7.388,0,0,0-.3,2.125,7.764,7.764,0,0,0,.261,2.034,5.4,5.4,0,0,0,.782,1.708A3.919,3.919,0,0,0-80.624-20.8a3.824,3.824,0,0,0,1.891.443,6.612,6.612,0,0,0,2.608-.508,9.5,9.5,0,0,0,2.19-1.291,11.226,11.226,0,0,0,1.747-1.708A20.253,20.253,0,0,0-70.9-25.608a13.954,13.954,0,0,0,.834-1.434q.3-.613.352-.769a.8.8,0,0,1,.352-.4,1.049,1.049,0,0,1,.535-.143.907.907,0,0,1,.717.313,1.041,1.041,0,0,1,.274.7A1.2,1.2,0,0,1-67.938-26.925ZM-57.69-22.57a5.614,5.614,0,0,1-1.147-.1,7.65,7.65,0,0,1-.939,1.447,6.181,6.181,0,0,1-1.265,1.16,6.111,6.111,0,0,1-1.6.782,6.237,6.237,0,0,1-1.93.287,5.7,5.7,0,0,1-2.243-.43,5.421,5.421,0,0,1-1.773-1.2,5.348,5.348,0,0,1-1.173-1.851,6.581,6.581,0,0,1-.417-2.386,6.6,6.6,0,0,1,.6-2.907,8.041,8.041,0,0,1,1.382-2.06,6.029,6.029,0,0,1,1.565-1.226,2.934,2.934,0,0,1,1.173-.4.873.873,0,0,1,.665.235.874.874,0,0,1,.222.626.8.8,0,0,1-.274.665,3.806,3.806,0,0,1-.691.43,5.014,5.014,0,0,0-.887.587,4.645,4.645,0,0,0-.874.952,5.188,5.188,0,0,0-.665,1.356,5.5,5.5,0,0,0-.261,1.747,4.811,4.811,0,0,0,.261,1.6,3.613,3.613,0,0,0,.756,1.278,3.527,3.527,0,0,0,1.173.834,3.7,3.7,0,0,0,1.512.3,4.167,4.167,0,0,0,2.464-.691,4.585,4.585,0,0,0,1.5-1.76,6.811,6.811,0,0,1-2.529-2.295,5.883,5.883,0,0,1-.991-3.338,3.884,3.884,0,0,1,.717-2.425,2.265,2.265,0,0,1,1.891-.939,2.751,2.751,0,0,1,1.33.339,3.15,3.15,0,0,1,1.108,1.069,6.076,6.076,0,0,1,.769,1.877,11.411,11.411,0,0,1,.287,2.738,7.841,7.841,0,0,1-.209,1.747,1.9,1.9,0,0,0,.313.026h.339a5.6,5.6,0,0,0,1.591-.209,4.167,4.167,0,0,0,1.278-.626,4.482,4.482,0,0,0,1.03-1.069,11.03,11.03,0,0,0,.874-1.512.785.785,0,0,1,.339-.3,1.074,1.074,0,0,1,.522-.143.936.936,0,0,1,.639.274.925.925,0,0,1,.3.717,1.185,1.185,0,0,1-.1.456q-.1.248-.209.456a10.684,10.684,0,0,1-1.03,1.5A6.348,6.348,0,0,1-53.688-23.7a6.912,6.912,0,0,1-1.786.847A6.852,6.852,0,0,1-57.69-22.57Zm-4.459-6.571a4.506,4.506,0,0,0,.13,1.043,4.819,4.819,0,0,0,.4,1.082A5.452,5.452,0,0,0-60.937-26a3.932,3.932,0,0,0,.952.821,7.556,7.556,0,0,0,.078-1.069,10.133,10.133,0,0,0-.1-1.434,8.262,8.262,0,0,0-.3-1.343,3.29,3.29,0,0,0-.482-.991.836.836,0,0,0-.678-.378.733.733,0,0,0-.417.235A1.4,1.4,0,0,0-62.149-29.141Zm29.466,2.164q-.1.209-.43.874t-.834,1.525q-.508.861-1.186,1.8a11.914,11.914,0,0,1-1.512,1.721,8.25,8.25,0,0,1-1.8,1.291,4.3,4.3,0,0,1-2.034.508,3.578,3.578,0,0,1-2.542-.965,5.6,5.6,0,0,1-1.5-2.425,7.657,7.657,0,0,1-2.112,2.36,4.2,4.2,0,0,1-2.451.874,4.211,4.211,0,0,1-1.747-.352,3.761,3.761,0,0,1-1.33-.991,4.606,4.606,0,0,1-.847-1.5,5.67,5.67,0,0,1-.3-1.877,8.737,8.737,0,0,1,.691-3.585,8.28,8.28,0,0,1,1.76-2.595,7.262,7.262,0,0,1,2.36-1.565,6.634,6.634,0,0,1,2.49-.522,4.76,4.76,0,0,1,1.486.222,7.085,7.085,0,0,1,1.16.482,4.417,4.417,0,0,1,.743.482q.261.222.287.248a1.08,1.08,0,0,1,.287.7.97.97,0,0,1-.287.691.908.908,0,0,1-.678.3.957.957,0,0,1-.7-.287q-.052-.052-.235-.2a2.952,2.952,0,0,0-.5-.3,4.054,4.054,0,0,0-.743-.274,3.723,3.723,0,0,0-.978-.117,4.644,4.644,0,0,0-1.721.365,4.872,4.872,0,0,0-1.669,1.134,6.355,6.355,0,0,0-1.265,1.93,6.817,6.817,0,0,0-.508,2.751,4.987,4.987,0,0,0,.1,1,2.787,2.787,0,0,0,.365.926,2.026,2.026,0,0,0,.7.678,2.128,2.128,0,0,0,1.1.261,2.442,2.442,0,0,0,1.082-.313,3.936,3.936,0,0,0,1.173-.965,7,7,0,0,0,1.017-1.643,8.233,8.233,0,0,0,.639-2.347.968.968,0,0,1,.339-.613,1,1,0,0,1,.678-.248.857.857,0,0,1,.639.287,1.031,1.031,0,0,1,.3.652q.026.5.1,1.4a8.549,8.549,0,0,0,.352,1.786,4.362,4.362,0,0,0,.821,1.538,1.869,1.869,0,0,0,1.512.652,2.535,2.535,0,0,0,1.239-.339,5.842,5.842,0,0,0,1.2-.9,10.159,10.159,0,0,0,1.121-1.278q.535-.717.978-1.447t.782-1.408q.339-.678.574-1.173a1,1,0,0,1,.378-.443.983.983,0,0,1,.535-.156.891.891,0,0,1,.717.326,1.059,1.059,0,0,1,.274.691A.92.92,0,0,1-32.683-26.977Zm1.1-2.373q-.156.417-.378.939t-.508,1.1a2.887,2.887,0,0,1-.482.691.865.865,0,0,1-.639.248.926.926,0,0,1-.7-.274.9.9,0,0,1-.261-.639.816.816,0,0,1,.026-.222,2.049,2.049,0,0,1,.13-.3,16.169,16.169,0,0,0,1-2.282,16.4,16.4,0,0,0,.535-2.047,9.809,9.809,0,0,1-.261-1.017,4.66,4.66,0,0,1-.078-.861,2.427,2.427,0,0,1,.365-1.4,1.164,1.164,0,0,1,1.017-.535,1.094,1.094,0,0,1,.952.522,2.231,2.231,0,0,1,.352,1.278,4.519,4.519,0,0,1-.078.834q-.078.417-.209,1.043.6,1.486,1.2,2.634t1.069,2.1a17.287,17.287,0,0,1,.769,1.786,4.906,4.906,0,0,1,.3,1.669A5.052,5.052,0,0,1-27.911-22a3.931,3.931,0,0,1-1.46,1.669,1.326,1.326,0,0,0,.261.026h.261a5.656,5.656,0,0,0,2.738-.678,8.747,8.747,0,0,0,2.256-1.76,14.107,14.107,0,0,0,1.786-2.4,24.3,24.3,0,0,0,1.356-2.621q.261-.6.73-.6a.832.832,0,0,1,.691.313,1.07,1.07,0,0,1,.248.678.982.982,0,0,1-.078.391q-.287.7-.743,1.6a17.72,17.72,0,0,1-1.1,1.851,15.905,15.905,0,0,1-1.473,1.864,11.145,11.145,0,0,1-1.864,1.63,9.342,9.342,0,0,1-2.256,1.147,8.059,8.059,0,0,1-2.686.43,8.5,8.5,0,0,1-3.246-.613,5.289,5.289,0,0,1-2.438-2.021.879.879,0,0,1-.156-.5.949.949,0,0,1,.3-.691.949.949,0,0,1,.691-.3.957.957,0,0,1,.7.287.7.7,0,0,0,.183.169q.156.117.378.261a2.423,2.423,0,0,0,.522.248,1.853,1.853,0,0,0,.613.1,2,2,0,0,0,1.056-.261,2.225,2.225,0,0,0,.691-.639,2.639,2.639,0,0,0,.378-.808,2.889,2.889,0,0,0,.117-.743,4.257,4.257,0,0,0-.209-1.3,9.156,9.156,0,0,0-.535-1.3q-.326-.652-.7-1.343A14.805,14.805,0,0,1-31.588-29.35ZM.2-45.8a.834.834,0,0,1-.287.665,1.04,1.04,0,0,1-.7.248H-14.013v.287a26.275,26.275,0,0,1-.235,3.39q-.235,1.8-.639,3.585t-.913,3.481q-.508,1.695-1.043,3.129a26.878,26.878,0,0,1-1.056,2.49,9.017,9.017,0,0,1-.939,1.578,15.606,15.606,0,0,0,.808,2.23,9.347,9.347,0,0,0,1.056,1.8,5.17,5.17,0,0,0,1.265,1.213,2.619,2.619,0,0,0,1.46.443,2.793,2.793,0,0,0,1.812-.769,10.584,10.584,0,0,0,1.669-1.825A19.083,19.083,0,0,0-9.41-26a17.6,17.6,0,0,0,.847-1.734.922.922,0,0,1,.913-.626.907.907,0,0,1,.717.313,1.011,1.011,0,0,1,.274.678A.92.92,0,0,1-6.738-27q-.078.183-.378.834T-7.9-24.656q-.482.861-1.121,1.812a11.1,11.1,0,0,1-1.434,1.734,8.323,8.323,0,0,1-1.708,1.3,3.831,3.831,0,0,1-1.93.522,4.972,4.972,0,0,1-3.233-1.173,9.329,9.329,0,0,1-2.438-3.286,19.885,19.885,0,0,1-1.525-5.007,35.807,35.807,0,0,1-.522-6.336q0-.861.026-2.021t.1-2.451q.078-1.291.235-2.66t.417-2.673h-9.361a1.04,1.04,0,0,1-.7-.248.834.834,0,0,1-.287-.665.834.834,0,0,1,.287-.665,1.04,1.04,0,0,1,.7-.248h9.8a12.057,12.057,0,0,1,.613-1.721,6.359,6.359,0,0,1,.808-1.356,3.648,3.648,0,0,1,1.017-.9,2.42,2.42,0,0,1,1.239-.326,1.977,1.977,0,0,1,1.134.326,2.749,2.749,0,0,1,.821.9,5.074,5.074,0,0,1,.535,1.356,13.062,13.062,0,0,1,.3,1.721H-.792a1.04,1.04,0,0,1,.7.248A.834.834,0,0,1,.2-45.8ZM-19.437-29.558a34.151,34.151,0,0,0,1.421-3.716q.639-1.995,1.1-4.029t.7-3.99a28.8,28.8,0,0,0,.248-3.6h-3.077a32.046,32.046,0,0,0-.587,4q-.222,2.386-.222,5.8,0,1.9.1,3.194A20.307,20.307,0,0,0-19.437-29.558Zm2.425-19.5q-.235,0-.678.508a5.693,5.693,0,0,0-.887,1.838h2.5a7.128,7.128,0,0,0-.378-1.721Q-16.7-49.063-17.012-49.063ZM-5.33-22.57a4.055,4.055,0,0,0,1.408,1.213,4.464,4.464,0,0,0,2.112.456,4.5,4.5,0,0,0,2.321-.613,7.663,7.663,0,0,0,1.9-1.6,12.859,12.859,0,0,0,1.538-2.216q.678-1.226,1.226-2.451a.944.944,0,0,1,.365-.43.981.981,0,0,1,.522-.143.907.907,0,0,1,.717.313,1.011,1.011,0,0,1,.274.678.816.816,0,0,1-.026.222,1.145,1.145,0,0,1-.078.2,18.935,18.935,0,0,1-3.924,5.971,7.033,7.033,0,0,1-4.811,2.06,6.253,6.253,0,0,1-2.973-.665,6.236,6.236,0,0,1-2.06-1.721,7.254,7.254,0,0,1-1.2-2.386,9.385,9.385,0,0,1-.391-2.66A8.754,8.754,0,0,1-8.081-28.8a6.19,6.19,0,0,1,.939-1.956,4.523,4.523,0,0,1,1.46-1.3,3.784,3.784,0,0,1,1.864-.469,3.026,3.026,0,0,1,1.186.248,3.4,3.4,0,0,1,1.056.7,3.479,3.479,0,0,1,.756,1.108,3.657,3.657,0,0,1,.287,1.486A5.491,5.491,0,0,1-.9-26.977a6.752,6.752,0,0,1-1,1.747,8.548,8.548,0,0,1-1.525,1.486A11.2,11.2,0,0,1-5.33-22.57Zm-.782-1.695a6.358,6.358,0,0,0,1.473-.861A6.152,6.152,0,0,0-3.5-26.273a5.321,5.321,0,0,0,.73-1.317,3.924,3.924,0,0,0,.261-1.4A1.641,1.641,0,0,0-2.9-30.171a1.232,1.232,0,0,0-.913-.4,1.876,1.876,0,0,0-1.2.391,2.955,2.955,0,0,0-.808,1.017,5.259,5.259,0,0,0-.456,1.4,8.308,8.308,0,0,0-.143,1.525,5.756,5.756,0,0,0,.091.991Q-6.242-24.734-6.112-24.265ZM7.917-30.419A13.077,13.077,0,0,1,7.656-29.1q-.156.613-.3,1.069t-.248.743a1.725,1.725,0,0,1-.13.313.922.922,0,0,1-.913.6,1.011,1.011,0,0,1-.678-.274.879.879,0,0,1-.313-.691.427.427,0,0,1,.052-.235,2.484,2.484,0,0,0,.156-.313,6.63,6.63,0,0,0,.261-.782q.156-.548.391-1.695-.443,0-.913-.026a2.841,2.841,0,0,1-.874-.183,1.511,1.511,0,0,1-.665-.5,1.506,1.506,0,0,1-.261-.939,4.118,4.118,0,0,1,.248-1.2A8.036,8.036,0,0,1,4.136-34.7a6.211,6.211,0,0,1,.939-1.265,1.489,1.489,0,0,1,1.043-.535,1.226,1.226,0,0,1,.978.443,3.154,3.154,0,0,1,.587,1.082,7.369,7.369,0,0,1,.3,1.343A9.7,9.7,0,0,1,8.074-32.4q.443,0,.874-.013t.821-.013a3.461,3.461,0,0,1,2.269.652,2.636,2.636,0,0,1,.782,2.138,10.513,10.513,0,0,1-.078,1.252q-.078.652-.183,1.343t-.183,1.369a11.6,11.6,0,0,0-.078,1.33,3.986,3.986,0,0,0,.261,1.552,2.83,2.83,0,0,0,.652.978,2.23,2.23,0,0,0,.834.508,2.648,2.648,0,0,0,.808.143,3.5,3.5,0,0,0,2.112-.73,9.945,9.945,0,0,0,1.825-1.76,16.977,16.977,0,0,0,1.5-2.177q.665-1.147,1.108-2.008a.922.922,0,0,1,.365-.365,1,1,0,0,1,.5-.13.916.916,0,0,1,.73.3.99.99,0,0,1,.261.665,1.035,1.035,0,0,1-.1.469q-.6,1.069-1.4,2.412a17.274,17.274,0,0,1-1.812,2.516,10.479,10.479,0,0,1-2.282,1.982,5.054,5.054,0,0,1-2.777.808,4.515,4.515,0,0,1-1.773-.352,4.127,4.127,0,0,1-1.447-1.017,4.94,4.94,0,0,1-.978-1.643,6.265,6.265,0,0,1-.365-2.2,13.071,13.071,0,0,1,.261-2.595,12.452,12.452,0,0,0,.261-2.464,1.085,1.085,0,0,0-.222-.743,1.351,1.351,0,0,0-.978-.248h-.8Q8.413-30.445,7.917-30.419ZM6.17-32.349q0-.183-.013-.482T6.1-33.418a3.069,3.069,0,0,0-.1-.5q-.065-.209-.143-.209t-.2.2q-.117.2-.248.469a5.158,5.158,0,0,0-.235.587q-.1.313-.156.522Z" transform="translate(84.94 51.019)"/><path class="b" d="M-67.938-26.925q-.156.287-.535,1.043a15.857,15.857,0,0,1-1.017,1.708,19.881,19.881,0,0,1-1.525,1.969,12.675,12.675,0,0,1-2.034,1.864,10.883,10.883,0,0,1-2.568,1.4,8.523,8.523,0,0,1-3.09.548,6.17,6.17,0,0,1-2.634-.535A5.546,5.546,0,0,1-83.3-20.445a6.746,6.746,0,0,1-1.226-2.308A9.811,9.811,0,0,1-84.94-25.7a9.467,9.467,0,0,1,.443-2.934,8.006,8.006,0,0,1,1.213-2.386,5.991,5.991,0,0,1,1.786-1.6,4.263,4.263,0,0,1,2.164-.587,3.954,3.954,0,0,1,1.565.3,3.6,3.6,0,0,1,1.186.8,3.864,3.864,0,0,1,.756,1.1,2.867,2.867,0,0,1,.274,1.2A3.83,3.83,0,0,1-75.7-28.75a3.825,3.825,0,0,1-.365.874,2.063,2.063,0,0,1-.508.6.937.937,0,0,1-.574.222.946.946,0,0,1-.717-.287.981.981,0,0,1-.274-.7.711.711,0,0,1,.091-.365q.091-.156.209-.326a1.866,1.866,0,0,0,.209-.417,1.877,1.877,0,0,0,.091-.639,1.3,1.3,0,0,0-.508-.991,1.893,1.893,0,0,0-1.291-.443,2.477,2.477,0,0,0-1.4.443,4.2,4.2,0,0,0-1.16,1.186,6.466,6.466,0,0,0-.8,1.747,7.388,7.388,0,0,0-.3,2.125,7.764,7.764,0,0,0,.261,2.034,5.4,5.4,0,0,0,.782,1.708A3.919,3.919,0,0,0-80.624-20.8a3.824,3.824,0,0,0,1.891.443,6.612,6.612,0,0,0,2.608-.508,9.5,9.5,0,0,0,2.19-1.291,11.226,11.226,0,0,0,1.747-1.708A20.253,20.253,0,0,0-70.9-25.608a13.954,13.954,0,0,0,.834-1.434q.3-.613.352-.769a.8.8,0,0,1,.352-.4,1.049,1.049,0,0,1,.535-.143.907.907,0,0,1,.717.313,1.041,1.041,0,0,1,.274.7A1.2,1.2,0,0,1-67.938-26.925ZM-57.69-22.57a5.614,5.614,0,0,1-1.147-.1,7.65,7.65,0,0,1-.939,1.447,6.181,6.181,0,0,1-1.265,1.16,6.111,6.111,0,0,1-1.6.782,6.237,6.237,0,0,1-1.93.287,5.7,5.7,0,0,1-2.243-.43,5.421,5.421,0,0,1-1.773-1.2,5.348,5.348,0,0,1-1.173-1.851,6.581,6.581,0,0,1-.417-2.386,6.6,6.6,0,0,1,.6-2.907,8.041,8.041,0,0,1,1.382-2.06,6.029,6.029,0,0,1,1.565-1.226,2.934,2.934,0,0,1,1.173-.4.873.873,0,0,1,.665.235.874.874,0,0,1,.222.626.8.8,0,0,1-.274.665,3.806,3.806,0,0,1-.691.43,5.014,5.014,0,0,0-.887.587,4.645,4.645,0,0,0-.874.952,5.188,5.188,0,0,0-.665,1.356,5.5,5.5,0,0,0-.261,1.747,4.811,4.811,0,0,0,.261,1.6,3.613,3.613,0,0,0,.756,1.278,3.527,3.527,0,0,0,1.173.834,3.7,3.7,0,0,0,1.512.3,4.167,4.167,0,0,0,2.464-.691,4.585,4.585,0,0,0,1.5-1.76,6.811,6.811,0,0,1-2.529-2.295,5.883,5.883,0,0,1-.991-3.338,3.884,3.884,0,0,1,.717-2.425,2.265,2.265,0,0,1,1.891-.939,2.751,2.751,0,0,1,1.33.339,3.15,3.15,0,0,1,1.108,1.069,6.076,6.076,0,0,1,.769,1.877,11.411,11.411,0,0,1,.287,2.738,7.841,7.841,0,0,1-.209,1.747,1.9,1.9,0,0,0,.313.026h.339a5.6,5.6,0,0,0,1.591-.209,4.167,4.167,0,0,0,1.278-.626,4.482,4.482,0,0,0,1.03-1.069,11.03,11.03,0,0,0,.874-1.512.785.785,0,0,1,.339-.3,1.074,1.074,0,0,1,.522-.143.936.936,0,0,1,.639.274.925.925,0,0,1,.3.717,1.185,1.185,0,0,1-.1.456q-.1.248-.209.456a10.684,10.684,0,0,1-1.03,1.5A6.348,6.348,0,0,1-53.688-23.7a6.912,6.912,0,0,1-1.786.847A6.852,6.852,0,0,1-57.69-22.57Zm-4.459-6.571a4.506,4.506,0,0,0,.13,1.043,4.819,4.819,0,0,0,.4,1.082A5.452,5.452,0,0,0-60.937-26a3.932,3.932,0,0,0,.952.821,7.556,7.556,0,0,0,.078-1.069,10.133,10.133,0,0,0-.1-1.434,8.262,8.262,0,0,0-.3-1.343,3.29,3.29,0,0,0-.482-.991.836.836,0,0,0-.678-.378.733.733,0,0,0-.417.235A1.4,1.4,0,0,0-62.149-29.141Zm29.466,2.164q-.1.209-.43.874t-.834,1.525q-.508.861-1.186,1.8a11.914,11.914,0,0,1-1.512,1.721,8.25,8.25,0,0,1-1.8,1.291,4.3,4.3,0,0,1-2.034.508,3.578,3.578,0,0,1-2.542-.965,5.6,5.6,0,0,1-1.5-2.425,7.657,7.657,0,0,1-2.112,2.36,4.2,4.2,0,0,1-2.451.874,4.211,4.211,0,0,1-1.747-.352,3.761,3.761,0,0,1-1.33-.991,4.606,4.606,0,0,1-.847-1.5,5.67,5.67,0,0,1-.3-1.877,8.737,8.737,0,0,1,.691-3.585,8.28,8.28,0,0,1,1.76-2.595,7.262,7.262,0,0,1,2.36-1.565,6.634,6.634,0,0,1,2.49-.522,4.76,4.76,0,0,1,1.486.222,7.085,7.085,0,0,1,1.16.482,4.417,4.417,0,0,1,.743.482q.261.222.287.248a1.08,1.08,0,0,1,.287.7.97.97,0,0,1-.287.691.908.908,0,0,1-.678.3.957.957,0,0,1-.7-.287q-.052-.052-.235-.2a2.952,2.952,0,0,0-.5-.3,4.054,4.054,0,0,0-.743-.274,3.723,3.723,0,0,0-.978-.117,4.644,4.644,0,0,0-1.721.365,4.872,4.872,0,0,0-1.669,1.134,6.355,6.355,0,0,0-1.265,1.93,6.817,6.817,0,0,0-.508,2.751,4.987,4.987,0,0,0,.1,1,2.787,2.787,0,0,0,.365.926,2.026,2.026,0,0,0,.7.678,2.128,2.128,0,0,0,1.1.261,2.442,2.442,0,0,0,1.082-.313,3.936,3.936,0,0,0,1.173-.965,7,7,0,0,0,1.017-1.643,8.233,8.233,0,0,0,.639-2.347.968.968,0,0,1,.339-.613,1,1,0,0,1,.678-.248.857.857,0,0,1,.639.287,1.031,1.031,0,0,1,.3.652q.026.5.1,1.4a8.549,8.549,0,0,0,.352,1.786,4.362,4.362,0,0,0,.821,1.538,1.869,1.869,0,0,0,1.512.652,2.535,2.535,0,0,0,1.239-.339,5.842,5.842,0,0,0,1.2-.9,10.159,10.159,0,0,0,1.121-1.278q.535-.717.978-1.447t.782-1.408q.339-.678.574-1.173a1,1,0,0,1,.378-.443.983.983,0,0,1,.535-.156.891.891,0,0,1,.717.326,1.059,1.059,0,0,1,.274.691A.92.92,0,0,1-32.683-26.977Zm1.1-2.373q-.156.417-.378.939t-.508,1.1a2.887,2.887,0,0,1-.482.691.865.865,0,0,1-.639.248.926.926,0,0,1-.7-.274.9.9,0,0,1-.261-.639.816.816,0,0,1,.026-.222,2.049,2.049,0,0,1,.13-.3,16.169,16.169,0,0,0,1-2.282,16.4,16.4,0,0,0,.535-2.047,9.809,9.809,0,0,1-.261-1.017,4.66,4.66,0,0,1-.078-.861,2.427,2.427,0,0,1,.365-1.4,1.164,1.164,0,0,1,1.017-.535,1.094,1.094,0,0,1,.952.522,2.231,2.231,0,0,1,.352,1.278,4.519,4.519,0,0,1-.078.834q-.078.417-.209,1.043.6,1.486,1.2,2.634t1.069,2.1a17.287,17.287,0,0,1,.769,1.786,4.906,4.906,0,0,1,.3,1.669A5.052,5.052,0,0,1-27.911-22a3.931,3.931,0,0,1-1.46,1.669,1.326,1.326,0,0,0,.261.026h.261a5.656,5.656,0,0,0,2.738-.678,8.747,8.747,0,0,0,2.256-1.76,14.107,14.107,0,0,0,1.786-2.4,24.3,24.3,0,0,0,1.356-2.621q.261-.6.73-.6a.832.832,0,0,1,.691.313,1.07,1.07,0,0,1,.248.678.982.982,0,0,1-.078.391q-.287.7-.743,1.6a17.72,17.72,0,0,1-1.1,1.851,15.905,15.905,0,0,1-1.473,1.864,11.145,11.145,0,0,1-1.864,1.63,9.342,9.342,0,0,1-2.256,1.147,8.059,8.059,0,0,1-2.686.43,8.5,8.5,0,0,1-3.246-.613,5.289,5.289,0,0,1-2.438-2.021.879.879,0,0,1-.156-.5.949.949,0,0,1,.3-.691.949.949,0,0,1,.691-.3.957.957,0,0,1,.7.287.7.7,0,0,0,.183.169q.156.117.378.261a2.423,2.423,0,0,0,.522.248,1.853,1.853,0,0,0,.613.1,2,2,0,0,0,1.056-.261,2.225,2.225,0,0,0,.691-.639,2.639,2.639,0,0,0,.378-.808,2.889,2.889,0,0,0,.117-.743,4.257,4.257,0,0,0-.209-1.3,9.156,9.156,0,0,0-.535-1.3q-.326-.652-.7-1.343A14.805,14.805,0,0,1-31.588-29.35ZM.2-45.8a.834.834,0,0,1-.287.665,1.04,1.04,0,0,1-.7.248H-14.013v.287a26.275,26.275,0,0,1-.235,3.39q-.235,1.8-.639,3.585t-.913,3.481q-.508,1.695-1.043,3.129a26.878,26.878,0,0,1-1.056,2.49,9.017,9.017,0,0,1-.939,1.578,15.606,15.606,0,0,0,.808,2.23,9.347,9.347,0,0,0,1.056,1.8,5.17,5.17,0,0,0,1.265,1.213,2.619,2.619,0,0,0,1.46.443,2.793,2.793,0,0,0,1.812-.769,10.584,10.584,0,0,0,1.669-1.825A19.083,19.083,0,0,0-9.41-26a17.6,17.6,0,0,0,.847-1.734.922.922,0,0,1,.913-.626.907.907,0,0,1,.717.313,1.011,1.011,0,0,1,.274.678A.92.92,0,0,1-6.738-27q-.078.183-.378.834T-7.9-24.656q-.482.861-1.121,1.812a11.1,11.1,0,0,1-1.434,1.734,8.323,8.323,0,0,1-1.708,1.3,3.831,3.831,0,0,1-1.93.522,4.972,4.972,0,0,1-3.233-1.173,9.329,9.329,0,0,1-2.438-3.286,19.885,19.885,0,0,1-1.525-5.007,35.807,35.807,0,0,1-.522-6.336q0-.861.026-2.021t.1-2.451q.078-1.291.235-2.66t.417-2.673h-9.361a1.04,1.04,0,0,1-.7-.248.834.834,0,0,1-.287-.665.834.834,0,0,1,.287-.665,1.04,1.04,0,0,1,.7-.248h9.8a12.057,12.057,0,0,1,.613-1.721,6.359,6.359,0,0,1,.808-1.356,3.648,3.648,0,0,1,1.017-.9,2.42,2.42,0,0,1,1.239-.326,1.977,1.977,0,0,1,1.134.326,2.749,2.749,0,0,1,.821.9,5.074,5.074,0,0,1,.535,1.356,13.062,13.062,0,0,1,.3,1.721H-.792a1.04,1.04,0,0,1,.7.248A.834.834,0,0,1,.2-45.8ZM-19.437-29.558a34.151,34.151,0,0,0,1.421-3.716q.639-1.995,1.1-4.029t.7-3.99a28.8,28.8,0,0,0,.248-3.6h-3.077a32.046,32.046,0,0,0-.587,4q-.222,2.386-.222,5.8,0,1.9.1,3.194A20.307,20.307,0,0,0-19.437-29.558Zm2.425-19.5q-.235,0-.678.508a5.693,5.693,0,0,0-.887,1.838h2.5a7.128,7.128,0,0,0-.378-1.721Q-16.7-49.063-17.012-49.063ZM-5.33-22.57a4.055,4.055,0,0,0,1.408,1.213,4.464,4.464,0,0,0,2.112.456,4.5,4.5,0,0,0,2.321-.613,7.663,7.663,0,0,0,1.9-1.6,12.859,12.859,0,0,0,1.538-2.216q.678-1.226,1.226-2.451a.944.944,0,0,1,.365-.43.981.981,0,0,1,.522-.143.907.907,0,0,1,.717.313,1.011,1.011,0,0,1,.274.678.816.816,0,0,1-.026.222,1.145,1.145,0,0,1-.078.2,18.935,18.935,0,0,1-3.924,5.971,7.033,7.033,0,0,1-4.811,2.06,6.253,6.253,0,0,1-2.973-.665,6.236,6.236,0,0,1-2.06-1.721,7.254,7.254,0,0,1-1.2-2.386,9.385,9.385,0,0,1-.391-2.66A8.754,8.754,0,0,1-8.081-28.8a6.19,6.19,0,0,1,.939-1.956,4.523,4.523,0,0,1,1.46-1.3,3.784,3.784,0,0,1,1.864-.469,3.026,3.026,0,0,1,1.186.248,3.4,3.4,0,0,1,1.056.7,3.479,3.479,0,0,1,.756,1.108,3.657,3.657,0,0,1,.287,1.486A5.491,5.491,0,0,1-.9-26.977a6.752,6.752,0,0,1-1,1.747,8.548,8.548,0,0,1-1.525,1.486A11.2,11.2,0,0,1-5.33-22.57Zm-.782-1.695a6.358,6.358,0,0,0,1.473-.861A6.152,6.152,0,0,0-3.5-26.273a5.321,5.321,0,0,0,.73-1.317,3.924,3.924,0,0,0,.261-1.4A1.641,1.641,0,0,0-2.9-30.171a1.232,1.232,0,0,0-.913-.4,1.876,1.876,0,0,0-1.2.391,2.955,2.955,0,0,0-.808,1.017,5.259,5.259,0,0,0-.456,1.4,8.308,8.308,0,0,0-.143,1.525,5.756,5.756,0,0,0,.091.991Q-6.242-24.734-6.112-24.265ZM7.917-30.419A13.077,13.077,0,0,1,7.656-29.1q-.156.613-.3,1.069t-.248.743a1.725,1.725,0,0,1-.13.313.922.922,0,0,1-.913.6,1.011,1.011,0,0,1-.678-.274.879.879,0,0,1-.313-.691.427.427,0,0,1,.052-.235,2.484,2.484,0,0,0,.156-.313,6.63,6.63,0,0,0,.261-.782q.156-.548.391-1.695-.443,0-.913-.026a2.841,2.841,0,0,1-.874-.183,1.511,1.511,0,0,1-.665-.5,1.506,1.506,0,0,1-.261-.939,4.118,4.118,0,0,1,.248-1.2A8.036,8.036,0,0,1,4.136-34.7a6.211,6.211,0,0,1,.939-1.265,1.489,1.489,0,0,1,1.043-.535,1.226,1.226,0,0,1,.978.443,3.154,3.154,0,0,1,.587,1.082,7.369,7.369,0,0,1,.3,1.343A9.7,9.7,0,0,1,8.074-32.4q.443,0,.874-.013t.821-.013a3.461,3.461,0,0,1,2.269.652,2.636,2.636,0,0,1,.782,2.138,10.513,10.513,0,0,1-.078,1.252q-.078.652-.183,1.343t-.183,1.369a11.6,11.6,0,0,0-.078,1.33,3.986,3.986,0,0,0,.261,1.552,2.83,2.83,0,0,0,.652.978,2.23,2.23,0,0,0,.834.508,2.648,2.648,0,0,0,.808.143,3.5,3.5,0,0,0,2.112-.73,9.945,9.945,0,0,0,1.825-1.76,16.977,16.977,0,0,0,1.5-2.177q.665-1.147,1.108-2.008a.922.922,0,0,1,.365-.365,1,1,0,0,1,.5-.13.916.916,0,0,1,.73.3.99.99,0,0,1,.261.665,1.035,1.035,0,0,1-.1.469q-.6,1.069-1.4,2.412a17.274,17.274,0,0,1-1.812,2.516,10.479,10.479,0,0,1-2.282,1.982,5.054,5.054,0,0,1-2.777.808,4.515,4.515,0,0,1-1.773-.352,4.127,4.127,0,0,1-1.447-1.017,4.94,4.94,0,0,1-.978-1.643,6.265,6.265,0,0,1-.365-2.2,13.071,13.071,0,0,1,.261-2.595,12.452,12.452,0,0,0,.261-2.464,1.085,1.085,0,0,0-.222-.743,1.351,1.351,0,0,0-.978-.248h-.8Q8.413-30.445,7.917-30.419ZM6.17-32.349q0-.183-.013-.482T6.1-33.418a3.069,3.069,0,0,0-.1-.5q-.065-.209-.143-.209t-.2.2q-.117.2-.248.469a5.158,5.158,0,0,0-.235.587q-.1.313-.156.522Z" transform="translate(84.94 51.019)"/></g></svg>