<svg xmlns="http://www.w3.org/2000/svg" xmlns:xlink="http://www.w3.org/1999/xlink" width="200" height="200" viewBox="0 0 178.251 168.268"><defs><style>.a{fill:url(#a);}.b{fill:#fff;font-size:30px;font-family:Roboto-Bold, Roboto;font-weight:700;}.c{fill:none;stroke:#7ae8e0;stroke-width:2px;}.d{fill:#cdfdfa;}.e{filter:url(#d);}.f{filter:url(#b);}</style><linearGradient id="a" x1="0.481" y1="0.021" x2="0" y2="1" gradientUnits="objectBoundingBox"><stop offset="0" stop-color="#57c6ba"/><stop offset="0.296" stop-color="#7ae3d8"/><stop offset="1" stop-color="#c7efa4"/></linearGradient><filter id="b" x="7" y="0" width="164.204" height="168.268" filterUnits="userSpaceOnUse"><feOffset dy="3" input="SourceAlpha"/><feGaussianBlur stdDeviation="3" result="c"/><feFlood flood-opacity="0.161"/><feComposite operator="in" in2="c"/><feComposite in="SourceGraphic"/></filter><filter id="d" x="21" y="50.838" width="136" height="53" filterUnits="userSpaceOnUse"><feOffset dy="3" input="SourceAlpha"/><feGaussianBlur stdDeviation="3" result="e"/><feFlood flood-opacity="0.161"/><feComposite operator="in" in2="e"/><feComposite in="SourceGraphic"/></filter></defs><g transform="translate(1 3.819)"><g class="f" transform="matrix(1, 0, 0, 1, -1, -3.82)"><path class="a" d="M-134.914-21.277V89.714L-36.753-25Z" transform="matrix(0.82, 0.57, -0.57, 0.82, 177.97, 103.86)"/></g><g class="e" transform="matrix(1, 0, 0, 1, -1, -3.82)"><text class="b" transform="translate(89 84.84)"><tspan x="-58.14" y="0">HUNTER</tspan></text></g><g transform="translate(-43.06 -221.142)"><path class="c" d="M-57.242-11.767q-.255.467-.871,1.7A25.833,25.833,0,0,1-59.77-7.285a32.389,32.389,0,0,1-2.485,3.207,20.649,20.649,0,0,1-3.313,3.037,17.729,17.729,0,0,1-4.184,2.273,13.884,13.884,0,0,1-5.034.892,10.052,10.052,0,0,1-4.291-.871,9.035,9.035,0,0,1-3.186-2.464,10.99,10.99,0,0,1-2-3.76,15.984,15.984,0,0,1-.68-4.8,15.424,15.424,0,0,1,.722-4.779,13.043,13.043,0,0,1,1.975-3.887,9.759,9.759,0,0,1,2.91-2.613A6.944,6.944,0,0,1-75.806-22a6.441,6.441,0,0,1,2.549.489,5.868,5.868,0,0,1,1.933,1.3,6.294,6.294,0,0,1,1.232,1.784,4.671,4.671,0,0,1,.446,1.954,6.24,6.24,0,0,1-.234,1.742,6.231,6.231,0,0,1-.595,1.423,3.36,3.36,0,0,1-.828.977,1.526,1.526,0,0,1-.935.361,1.541,1.541,0,0,1-1.168-.467,1.6,1.6,0,0,1-.446-1.147,1.159,1.159,0,0,1,.149-.595q.149-.255.34-.531a3.04,3.04,0,0,0,.34-.68,3.059,3.059,0,0,0,.149-1.041,2.115,2.115,0,0,0-.828-1.614,3.084,3.084,0,0,0-2.1-.722,4.035,4.035,0,0,0-2.273.722,6.843,6.843,0,0,0-1.89,1.933,10.535,10.535,0,0,0-1.3,2.846,12.035,12.035,0,0,0-.489,3.462A12.648,12.648,0,0,0-81.329-6.5a8.79,8.79,0,0,0,1.274,2.782,6.385,6.385,0,0,0,2.145,1.933,6.23,6.23,0,0,0,3.08.722,10.772,10.772,0,0,0,4.248-.828,15.473,15.473,0,0,0,3.568-2.1,18.289,18.289,0,0,0,2.846-2.782,32.992,32.992,0,0,0,2.1-2.846A22.732,22.732,0,0,0-60.7-11.958q.489-1,.573-1.253a1.3,1.3,0,0,1,.573-.658,1.709,1.709,0,0,1,.871-.234,1.478,1.478,0,0,1,1.168.51,1.7,1.7,0,0,1,.446,1.147A1.958,1.958,0,0,1-57.242-11.767Zm16.695,7.094a9.146,9.146,0,0,1-1.869-.17,12.462,12.462,0,0,1-1.529,2.358,10.069,10.069,0,0,1-2.06,1.89A9.956,9.956,0,0,1-48.619.68a10.161,10.161,0,0,1-3.144.467,9.283,9.283,0,0,1-3.653-.7A8.831,8.831,0,0,1-58.3-1.508a8.713,8.713,0,0,1-1.912-3.016,10.721,10.721,0,0,1-.68-3.887,10.757,10.757,0,0,1,.977-4.737A13.1,13.1,0,0,1-57.667-16.5a9.822,9.822,0,0,1,2.549-2,4.78,4.78,0,0,1,1.912-.658,1.422,1.422,0,0,1,1.083.382,1.424,1.424,0,0,1,.361,1.02,1.311,1.311,0,0,1-.446,1.083,6.2,6.2,0,0,1-1.126.7,8.168,8.168,0,0,0-1.444.956A7.567,7.567,0,0,0-56.2-13.466a8.452,8.452,0,0,0-1.083,2.209,8.967,8.967,0,0,0-.425,2.846A7.837,7.837,0,0,0-57.285-5.8a5.886,5.886,0,0,0,1.232,2.082,5.746,5.746,0,0,0,1.912,1.359,6.027,6.027,0,0,0,2.464.489,6.788,6.788,0,0,0,4.014-1.126A7.47,7.47,0,0,0-45.22-5.862,11.1,11.1,0,0,1-49.341-9.6a9.584,9.584,0,0,1-1.614-5.437,6.328,6.328,0,0,1,1.168-3.951,3.689,3.689,0,0,1,3.08-1.529,4.482,4.482,0,0,1,2.167.552,5.131,5.131,0,0,1,1.805,1.742,9.9,9.9,0,0,1,1.253,3.059,18.589,18.589,0,0,1,.467,4.46,12.774,12.774,0,0,1-.34,2.846,3.1,3.1,0,0,0,.51.042h.552a9.118,9.118,0,0,0,2.591-.34,6.788,6.788,0,0,0,2.082-1.02,7.3,7.3,0,0,0,1.678-1.742,17.969,17.969,0,0,0,1.423-2.464,1.279,1.279,0,0,1,.552-.489,1.749,1.749,0,0,1,.85-.234,1.524,1.524,0,0,1,1.041.446,1.507,1.507,0,0,1,.489,1.168,1.931,1.931,0,0,1-.17.743q-.17.4-.34.743A17.406,17.406,0,0,1-31.775-8.56a10.341,10.341,0,0,1-2.251,2.039,11.261,11.261,0,0,1-2.91,1.381A11.162,11.162,0,0,1-40.548-4.673Zm-7.264-10.705a7.34,7.34,0,0,0,.212,1.7,7.851,7.851,0,0,0,.658,1.763,8.882,8.882,0,0,0,1.1,1.657,6.406,6.406,0,0,0,1.551,1.338,12.31,12.31,0,0,0,.127-1.742A16.509,16.509,0,0,0-44.328-13a13.46,13.46,0,0,0-.489-2.188A5.36,5.36,0,0,0-45.6-16.8a1.362,1.362,0,0,0-1.1-.616,1.2,1.2,0,0,0-.68.382A2.284,2.284,0,0,0-47.812-15.378Zm48,3.526q-.17.34-.7,1.423T-1.869-7.944Q-2.7-6.542-3.8-5.013a19.41,19.41,0,0,1-2.464,2.8A13.44,13.44,0,0,1-9.2-.106,7.009,7.009,0,0,1-12.51.722,5.829,5.829,0,0,1-16.652-.85,9.125,9.125,0,0,1-19.095-4.8,12.474,12.474,0,0,1-22.536-.956,6.85,6.85,0,0,1-26.529.467a6.859,6.859,0,0,1-2.846-.573A6.127,6.127,0,0,1-31.542-1.72a7.5,7.5,0,0,1-1.381-2.443,9.237,9.237,0,0,1-.489-3.059,14.234,14.234,0,0,1,1.126-5.841,13.489,13.489,0,0,1,2.867-4.227,11.83,11.83,0,0,1,3.844-2.549,10.807,10.807,0,0,1,4.057-.85,7.755,7.755,0,0,1,2.421.361,11.541,11.541,0,0,1,1.89.786,7.2,7.2,0,0,1,1.211.786q.425.361.467.4a1.76,1.76,0,0,1,.467,1.147,1.581,1.581,0,0,1-.467,1.126,1.479,1.479,0,0,1-1.1.489,1.559,1.559,0,0,1-1.147-.467q-.085-.085-.382-.319a4.809,4.809,0,0,0-.807-.489,6.6,6.6,0,0,0-1.211-.446,6.065,6.065,0,0,0-1.593-.191,7.565,7.565,0,0,0-2.8.595,7.937,7.937,0,0,0-2.719,1.848,10.353,10.353,0,0,0-2.06,3.144,11.106,11.106,0,0,0-.828,4.482,8.124,8.124,0,0,0,.17,1.635,4.541,4.541,0,0,0,.595,1.508,3.3,3.3,0,0,0,1.147,1.1,3.467,3.467,0,0,0,1.784.425,3.979,3.979,0,0,0,1.763-.51,6.412,6.412,0,0,0,1.912-1.572,11.4,11.4,0,0,0,1.657-2.676,13.412,13.412,0,0,0,1.041-3.823,1.577,1.577,0,0,1,.552-1,1.635,1.635,0,0,1,1.1-.4,1.4,1.4,0,0,1,1.041.467,1.679,1.679,0,0,1,.489,1.062q.042.807.17,2.273a13.927,13.927,0,0,0,.573,2.91,7.106,7.106,0,0,0,1.338,2.506,3.044,3.044,0,0,0,2.464,1.062,4.129,4.129,0,0,0,2.018-.552A9.516,9.516,0,0,0-8.411-4.482,16.55,16.55,0,0,0-6.584-6.563q.871-1.168,1.593-2.358t1.274-2.294q.552-1.1.935-1.912a1.625,1.625,0,0,1,.616-.722A1.6,1.6,0,0,1-1.3-14.1a1.452,1.452,0,0,1,1.168.531,1.725,1.725,0,0,1,.446,1.126A1.5,1.5,0,0,1,.191-11.852Zm1.784-3.866q-.255.68-.616,1.529T.531-12.4a4.7,4.7,0,0,1-.786,1.126,1.409,1.409,0,0,1-1.041.4,1.509,1.509,0,0,1-1.147-.446,1.462,1.462,0,0,1-.425-1.041,1.329,1.329,0,0,1,.042-.361,3.339,3.339,0,0,1,.212-.489A26.341,26.341,0,0,0-.977-16.928a26.713,26.713,0,0,0,.871-3.335A15.98,15.98,0,0,1-.531-21.92a7.592,7.592,0,0,1-.127-1.4,3.954,3.954,0,0,1,.595-2.273,1.9,1.9,0,0,1,1.657-.871,1.782,1.782,0,0,1,1.551.85,3.635,3.635,0,0,1,.573,2.082,7.362,7.362,0,0,1-.127,1.359q-.127.68-.34,1.7.977,2.421,1.954,4.291t1.742,3.42A28.163,28.163,0,0,1,8.2-9.855a7.993,7.993,0,0,1,.489,2.719,8.23,8.23,0,0,1-.722,3.4A6.4,6.4,0,0,1,5.586-1.02a2.161,2.161,0,0,0,.425.042h.425a9.215,9.215,0,0,0,4.46-1.1,14.25,14.25,0,0,0,3.675-2.867,22.982,22.982,0,0,0,2.91-3.908,39.579,39.579,0,0,0,2.209-4.269q.425-.977,1.189-.977a1.355,1.355,0,0,1,1.126.51,1.744,1.744,0,0,1,.4,1.1,1.6,1.6,0,0,1-.127.637q-.467,1.147-1.211,2.613a28.867,28.867,0,0,1-1.784,3.016,25.911,25.911,0,0,1-2.4,3.037A18.157,18.157,0,0,1,13.849-.531a15.218,15.218,0,0,1-3.675,1.869,13.128,13.128,0,0,1-4.375.7,13.845,13.845,0,0,1-5.289-1A8.617,8.617,0,0,1-3.462-2.251a1.431,1.431,0,0,1-.255-.807,1.547,1.547,0,0,1,.489-1.126A1.547,1.547,0,0,1-2.1-4.673a1.559,1.559,0,0,1,1.147.467,1.147,1.147,0,0,0,.3.276q.255.191.616.425a3.947,3.947,0,0,0,.85.4,3.018,3.018,0,0,0,1,.17,3.263,3.263,0,0,0,1.72-.425A3.624,3.624,0,0,0,4.652-4.4a4.3,4.3,0,0,0,.616-1.317,4.707,4.707,0,0,0,.191-1.211,6.935,6.935,0,0,0-.34-2.124,14.916,14.916,0,0,0-.871-2.124Q3.717-12.234,3.1-13.36A24.119,24.119,0,0,1,1.975-15.718ZM53.759-42.523a1.359,1.359,0,0,1-.467,1.083,1.694,1.694,0,0,1-1.147.4H30.607v.467a42.8,42.8,0,0,1-.382,5.522q-.382,2.931-1.041,5.841T27.7-23.534q-.828,2.761-1.7,5.1a43.786,43.786,0,0,1-1.72,4.057,14.689,14.689,0,0,1-1.529,2.57,25.424,25.424,0,0,0,1.317,3.632,15.227,15.227,0,0,0,1.72,2.931,8.422,8.422,0,0,0,2.06,1.975,4.266,4.266,0,0,0,2.379.722A4.55,4.55,0,0,0,33.177-3.8,17.243,17.243,0,0,0,35.9-6.776,31.088,31.088,0,0,0,38.1-10.259a28.669,28.669,0,0,0,1.381-2.825,1.5,1.5,0,0,1,1.487-1.02,1.478,1.478,0,0,1,1.168.51,1.646,1.646,0,0,1,.446,1.1,1.5,1.5,0,0,1-.127.595q-.127.3-.616,1.359T40.569-8.071q-.786,1.4-1.827,2.952a18.09,18.09,0,0,1-2.336,2.825A13.559,13.559,0,0,1,33.623-.17,6.24,6.24,0,0,1,30.48.68a8.1,8.1,0,0,1-5.268-1.912A15.2,15.2,0,0,1,21.24-6.584a32.4,32.4,0,0,1-2.485-8.156,58.334,58.334,0,0,1-.85-10.323q0-1.4.042-3.292t.17-3.993q.127-2.1.382-4.333t.68-4.354H3.929a1.694,1.694,0,0,1-1.147-.4,1.359,1.359,0,0,1-.467-1.083,1.359,1.359,0,0,1,.467-1.083,1.694,1.694,0,0,1,1.147-.4H19.9a19.642,19.642,0,0,1,1-2.8,10.359,10.359,0,0,1,1.317-2.209,5.943,5.943,0,0,1,1.657-1.466,3.942,3.942,0,0,1,2.018-.531,3.221,3.221,0,0,1,1.848.531,4.479,4.479,0,0,1,1.338,1.466,8.266,8.266,0,0,1,.871,2.209,21.279,21.279,0,0,1,.489,2.8H52.145a1.694,1.694,0,0,1,1.147.4A1.359,1.359,0,0,1,53.759-42.523ZM21.771-16.058a55.636,55.636,0,0,0,2.315-6.053q1.041-3.25,1.784-6.563t1.147-6.5a46.914,46.914,0,0,0,.4-5.862H22.408a52.206,52.206,0,0,0-.956,6.521q-.361,3.887-.361,9.452,0,3.1.17,5.2A33.083,33.083,0,0,0,21.771-16.058Zm3.951-31.775q-.382,0-1.1.828a9.275,9.275,0,0,0-1.444,2.995h4.078a11.613,11.613,0,0,0-.616-2.8Q26.232-47.833,25.722-47.833ZM44.753-4.673A6.607,6.607,0,0,0,47.047-2.7a7.272,7.272,0,0,0,3.441.743,7.325,7.325,0,0,0,3.781-1,12.483,12.483,0,0,0,3.1-2.613,20.948,20.948,0,0,0,2.506-3.611q1.1-2,2-3.993a1.538,1.538,0,0,1,.595-.7,1.6,1.6,0,0,1,.85-.234,1.478,1.478,0,0,1,1.168.51,1.646,1.646,0,0,1,.446,1.1,1.329,1.329,0,0,1-.042.361,1.865,1.865,0,0,1-.127.319,30.847,30.847,0,0,1-6.393,9.728,11.458,11.458,0,0,1-7.838,3.356A10.187,10.187,0,0,1,45.688.191a10.16,10.16,0,0,1-3.356-2.8A11.817,11.817,0,0,1,40.378-6.5a15.29,15.29,0,0,1-.637-4.333,14.261,14.261,0,0,1,.531-3.993A10.085,10.085,0,0,1,41.8-18.012a7.368,7.368,0,0,1,2.379-2.124,6.164,6.164,0,0,1,3.037-.765,4.93,4.93,0,0,1,1.933.4,5.547,5.547,0,0,1,1.72,1.147A5.668,5.668,0,0,1,52.1-17.544a5.957,5.957,0,0,1,.467,2.421,8.945,8.945,0,0,1-.595,3.271,11,11,0,0,1-1.635,2.846,13.926,13.926,0,0,1-2.485,2.421A18.245,18.245,0,0,1,44.753-4.673ZM43.479-7.434a10.358,10.358,0,0,0,2.4-1.4,10.022,10.022,0,0,0,1.848-1.869,8.669,8.669,0,0,0,1.189-2.145,6.393,6.393,0,0,0,.425-2.273,2.673,2.673,0,0,0-.637-1.933,2.007,2.007,0,0,0-1.487-.658,3.056,3.056,0,0,0-1.954.637,4.813,4.813,0,0,0-1.317,1.657,8.567,8.567,0,0,0-.743,2.273,13.535,13.535,0,0,0-.234,2.485,9.377,9.377,0,0,0,.149,1.614Q43.266-8.2,43.479-7.434ZM66.333-17.459a21.3,21.3,0,0,1-.425,2.145q-.255,1-.489,1.742t-.4,1.211a2.809,2.809,0,0,1-.212.51,1.5,1.5,0,0,1-1.487.977,1.646,1.646,0,0,1-1.1-.446,1.432,1.432,0,0,1-.51-1.126.7.7,0,0,1,.085-.382,4.047,4.047,0,0,0,.255-.51,10.8,10.8,0,0,0,.425-1.274q.255-.892.637-2.761-.722,0-1.487-.042a4.629,4.629,0,0,1-1.423-.3,2.461,2.461,0,0,1-1.083-.807,2.454,2.454,0,0,1-.425-1.529A6.708,6.708,0,0,1,59.09-22a13.091,13.091,0,0,1,1.083-2.421,10.119,10.119,0,0,1,1.529-2.06,2.426,2.426,0,0,1,1.7-.871A2,2,0,0,1,65-26.635a5.138,5.138,0,0,1,.956,1.763,12,12,0,0,1,.489,2.188,15.805,15.805,0,0,1,.149,2q.722,0,1.423-.021t1.338-.021a5.638,5.638,0,0,1,3.7,1.062,4.3,4.3,0,0,1,1.274,3.483,17.128,17.128,0,0,1-.127,2.039q-.127,1.062-.3,2.188t-.3,2.23a18.894,18.894,0,0,0-.127,2.167,6.493,6.493,0,0,0,.425,2.528,4.611,4.611,0,0,0,1.062,1.593,3.633,3.633,0,0,0,1.359.828,4.314,4.314,0,0,0,1.317.234,5.7,5.7,0,0,0,3.441-1.189,16.2,16.2,0,0,0,2.974-2.867A27.657,27.657,0,0,0,86.49-9.983q1.083-1.869,1.805-3.271a1.5,1.5,0,0,1,.595-.595,1.638,1.638,0,0,1,.807-.212,1.492,1.492,0,0,1,1.189.489,1.612,1.612,0,0,1,.425,1.083,1.686,1.686,0,0,1-.17.765Q90.165-9.983,88.869-7.8a28.141,28.141,0,0,1-2.952,4.1A17.071,17.071,0,0,1,82.2-.467,8.233,8.233,0,0,1,77.676.85,7.355,7.355,0,0,1,74.787.276a6.724,6.724,0,0,1-2.358-1.657,8.049,8.049,0,0,1-1.593-2.676,10.206,10.206,0,0,1-.595-3.59,21.294,21.294,0,0,1,.425-4.227,20.285,20.285,0,0,0,.425-4.014A1.767,1.767,0,0,0,70.73-17.1a2.2,2.2,0,0,0-1.593-.4h-1.3Q67.14-17.5,66.333-17.459ZM63.487-20.6q0-.3-.021-.786t-.085-.956a5,5,0,0,0-.17-.807q-.106-.34-.234-.34t-.319.319q-.191.319-.4.765a8.4,8.4,0,0,0-.382.956q-.17.51-.255.85Z" transform="translate(128 272.161)"/><path class="d" d="M-57.242-11.767q-.255.467-.871,1.7A25.833,25.833,0,0,1-59.77-7.285a32.389,32.389,0,0,1-2.485,3.207,20.649,20.649,0,0,1-3.313,3.037,17.729,17.729,0,0,1-4.184,2.273,13.884,13.884,0,0,1-5.034.892,10.052,10.052,0,0,1-4.291-.871,9.035,9.035,0,0,1-3.186-2.464,10.99,10.99,0,0,1-2-3.76,15.984,15.984,0,0,1-.68-4.8,15.424,15.424,0,0,1,.722-4.779,13.043,13.043,0,0,1,1.975-3.887,9.759,9.759,0,0,1,2.91-2.613A6.944,6.944,0,0,1-75.806-22a6.441,6.441,0,0,1,2.549.489,5.868,5.868,0,0,1,1.933,1.3,6.294,6.294,0,0,1,1.232,1.784,4.671,4.671,0,0,1,.446,1.954,6.24,6.24,0,0,1-.234,1.742,6.231,6.231,0,0,1-.595,1.423,3.36,3.36,0,0,1-.828.977,1.526,1.526,0,0,1-.935.361,1.541,1.541,0,0,1-1.168-.467,1.6,1.6,0,0,1-.446-1.147,1.159,1.159,0,0,1,.149-.595q.149-.255.34-.531a3.04,3.04,0,0,0,.34-.68,3.059,3.059,0,0,0,.149-1.041,2.115,2.115,0,0,0-.828-1.614,3.084,3.084,0,0,0-2.1-.722,4.035,4.035,0,0,0-2.273.722,6.843,6.843,0,0,0-1.89,1.933,10.535,10.535,0,0,0-1.3,2.846,12.035,12.035,0,0,0-.489,3.462A12.648,12.648,0,0,0-81.329-6.5a8.79,8.79,0,0,0,1.274,2.782,6.385,6.385,0,0,0,2.145,1.933,6.23,6.23,0,0,0,3.08.722,10.772,10.772,0,0,0,4.248-.828,15.473,15.473,0,0,0,3.568-2.1,18.289,18.289,0,0,0,2.846-2.782,32.992,32.992,0,0,0,2.1-2.846A22.732,22.732,0,0,0-60.7-11.958q.489-1,.573-1.253a1.3,1.3,0,0,1,.573-.658,1.709,1.709,0,0,1,.871-.234,1.478,1.478,0,0,1,1.168.51,1.7,1.7,0,0,1,.446,1.147A1.958,1.958,0,0,1-57.242-11.767Zm16.695,7.094a9.146,9.146,0,0,1-1.869-.17,12.462,12.462,0,0,1-1.529,2.358,10.069,10.069,0,0,1-2.06,1.89A9.956,9.956,0,0,1-48.619.68a10.161,10.161,0,0,1-3.144.467,9.283,9.283,0,0,1-3.653-.7A8.831,8.831,0,0,1-58.3-1.508a8.713,8.713,0,0,1-1.912-3.016,10.721,10.721,0,0,1-.68-3.887,10.757,10.757,0,0,1,.977-4.737A13.1,13.1,0,0,1-57.667-16.5a9.822,9.822,0,0,1,2.549-2,4.78,4.78,0,0,1,1.912-.658,1.422,1.422,0,0,1,1.083.382,1.424,1.424,0,0,1,.361,1.02,1.311,1.311,0,0,1-.446,1.083,6.2,6.2,0,0,1-1.126.7,8.168,8.168,0,0,0-1.444.956A7.567,7.567,0,0,0-56.2-13.466a8.452,8.452,0,0,0-1.083,2.209,8.967,8.967,0,0,0-.425,2.846A7.837,7.837,0,0,0-57.285-5.8a5.886,5.886,0,0,0,1.232,2.082,5.746,5.746,0,0,0,1.912,1.359,6.027,6.027,0,0,0,2.464.489,6.788,6.788,0,0,0,4.014-1.126A7.47,7.47,0,0,0-45.22-5.862,11.1,11.1,0,0,1-49.341-9.6a9.584,9.584,0,0,1-1.614-5.437,6.328,6.328,0,0,1,1.168-3.951,3.689,3.689,0,0,1,3.08-1.529,4.482,4.482,0,0,1,2.167.552,5.131,5.131,0,0,1,1.805,1.742,9.9,9.9,0,0,1,1.253,3.059,18.589,18.589,0,0,1,.467,4.46,12.774,12.774,0,0,1-.34,2.846,3.1,3.1,0,0,0,.51.042h.552a9.118,9.118,0,0,0,2.591-.34,6.788,6.788,0,0,0,2.082-1.02,7.3,7.3,0,0,0,1.678-1.742,17.969,17.969,0,0,0,1.423-2.464,1.279,1.279,0,0,1,.552-.489,1.749,1.749,0,0,1,.85-.234,1.524,1.524,0,0,1,1.041.446,1.507,1.507,0,0,1,.489,1.168,1.931,1.931,0,0,1-.17.743q-.17.4-.34.743A17.406,17.406,0,0,1-31.775-8.56a10.341,10.341,0,0,1-2.251,2.039,11.261,11.261,0,0,1-2.91,1.381A11.162,11.162,0,0,1-40.548-4.673Zm-7.264-10.705a7.34,7.34,0,0,0,.212,1.7,7.851,7.851,0,0,0,.658,1.763,8.882,8.882,0,0,0,1.1,1.657,6.406,6.406,0,0,0,1.551,1.338,12.31,12.31,0,0,0,.127-1.742A16.509,16.509,0,0,0-44.328-13a13.46,13.46,0,0,0-.489-2.188A5.36,5.36,0,0,0-45.6-16.8a1.362,1.362,0,0,0-1.1-.616,1.2,1.2,0,0,0-.68.382A2.284,2.284,0,0,0-47.812-15.378Zm48,3.526q-.17.34-.7,1.423T-1.869-7.944Q-2.7-6.542-3.8-5.013a19.41,19.41,0,0,1-2.464,2.8A13.44,13.44,0,0,1-9.2-.106,7.009,7.009,0,0,1-12.51.722,5.829,5.829,0,0,1-16.652-.85,9.125,9.125,0,0,1-19.095-4.8,12.474,12.474,0,0,1-22.536-.956,6.85,6.85,0,0,1-26.529.467a6.859,6.859,0,0,1-2.846-.573A6.127,6.127,0,0,1-31.542-1.72a7.5,7.5,0,0,1-1.381-2.443,9.237,9.237,0,0,1-.489-3.059,14.234,14.234,0,0,1,1.126-5.841,13.489,13.489,0,0,1,2.867-4.227,11.83,11.83,0,0,1,3.844-2.549,10.807,10.807,0,0,1,4.057-.85,7.755,7.755,0,0,1,2.421.361,11.541,11.541,0,0,1,1.89.786,7.2,7.2,0,0,1,1.211.786q.425.361.467.4a1.76,1.76,0,0,1,.467,1.147,1.581,1.581,0,0,1-.467,1.126,1.479,1.479,0,0,1-1.1.489,1.559,1.559,0,0,1-1.147-.467q-.085-.085-.382-.319a4.809,4.809,0,0,0-.807-.489,6.6,6.6,0,0,0-1.211-.446,6.065,6.065,0,0,0-1.593-.191,7.565,7.565,0,0,0-2.8.595,7.937,7.937,0,0,0-2.719,1.848,10.353,10.353,0,0,0-2.06,3.144,11.106,11.106,0,0,0-.828,4.482,8.124,8.124,0,0,0,.17,1.635,4.541,4.541,0,0,0,.595,1.508,3.3,3.3,0,0,0,1.147,1.1,3.467,3.467,0,0,0,1.784.425,3.979,3.979,0,0,0,1.763-.51,6.412,6.412,0,0,0,1.912-1.572,11.4,11.4,0,0,0,1.657-2.676,13.412,13.412,0,0,0,1.041-3.823,1.577,1.577,0,0,1,.552-1,1.635,1.635,0,0,1,1.1-.4,1.4,1.4,0,0,1,1.041.467,1.679,1.679,0,0,1,.489,1.062q.042.807.17,2.273a13.927,13.927,0,0,0,.573,2.91,7.106,7.106,0,0,0,1.338,2.506,3.044,3.044,0,0,0,2.464,1.062,4.129,4.129,0,0,0,2.018-.552A9.516,9.516,0,0,0-8.411-4.482,16.55,16.55,0,0,0-6.584-6.563q.871-1.168,1.593-2.358t1.274-2.294q.552-1.1.935-1.912a1.625,1.625,0,0,1,.616-.722A1.6,1.6,0,0,1-1.3-14.1a1.452,1.452,0,0,1,1.168.531,1.725,1.725,0,0,1,.446,1.126A1.5,1.5,0,0,1,.191-11.852Zm1.784-3.866q-.255.68-.616,1.529T.531-12.4a4.7,4.7,0,0,1-.786,1.126,1.409,1.409,0,0,1-1.041.4,1.509,1.509,0,0,1-1.147-.446,1.462,1.462,0,0,1-.425-1.041,1.329,1.329,0,0,1,.042-.361,3.339,3.339,0,0,1,.212-.489A26.341,26.341,0,0,0-.977-16.928a26.713,26.713,0,0,0,.871-3.335A15.98,15.98,0,0,1-.531-21.92a7.592,7.592,0,0,1-.127-1.4,3.954,3.954,0,0,1,.595-2.273,1.9,1.9,0,0,1,1.657-.871,1.782,1.782,0,0,1,1.551.85,3.635,3.635,0,0,1,.573,2.082,7.362,7.362,0,0,1-.127,1.359q-.127.68-.34,1.7.977,2.421,1.954,4.291t1.742,3.42A28.163,28.163,0,0,1,8.2-9.855a7.993,7.993,0,0,1,.489,2.719,8.23,8.23,0,0,1-.722,3.4A6.4,6.4,0,0,1,5.586-1.02a2.161,2.161,0,0,0,.425.042h.425a9.215,9.215,0,0,0,4.46-1.1,14.25,14.25,0,0,0,3.675-2.867,22.982,22.982,0,0,0,2.91-3.908,39.579,39.579,0,0,0,2.209-4.269q.425-.977,1.189-.977a1.355,1.355,0,0,1,1.126.51,1.744,1.744,0,0,1,.4,1.1,1.6,1.6,0,0,1-.127.637q-.467,1.147-1.211,2.613a28.867,28.867,0,0,1-1.784,3.016,25.911,25.911,0,0,1-2.4,3.037A18.157,18.157,0,0,1,13.849-.531a15.218,15.218,0,0,1-3.675,1.869,13.128,13.128,0,0,1-4.375.7,13.845,13.845,0,0,1-5.289-1A8.617,8.617,0,0,1-3.462-2.251a1.431,1.431,0,0,1-.255-.807,1.547,1.547,0,0,1,.489-1.126A1.547,1.547,0,0,1-2.1-4.673a1.559,1.559,0,0,1,1.147.467,1.147,1.147,0,0,0,.3.276q.255.191.616.425a3.947,3.947,0,0,0,.85.4,3.018,3.018,0,0,0,1,.17,3.263,3.263,0,0,0,1.72-.425A3.624,3.624,0,0,0,4.652-4.4a4.3,4.3,0,0,0,.616-1.317,4.707,4.707,0,0,0,.191-1.211,6.935,6.935,0,0,0-.34-2.124,14.916,14.916,0,0,0-.871-2.124Q3.717-12.234,3.1-13.36A24.119,24.119,0,0,1,1.975-15.718ZM53.759-42.523a1.359,1.359,0,0,1-.467,1.083,1.694,1.694,0,0,1-1.147.4H30.607v.467a42.8,42.8,0,0,1-.382,5.522q-.382,2.931-1.041,5.841T27.7-23.534q-.828,2.761-1.7,5.1a43.786,43.786,0,0,1-1.72,4.057,14.689,14.689,0,0,1-1.529,2.57,25.424,25.424,0,0,0,1.317,3.632,15.227,15.227,0,0,0,1.72,2.931,8.422,8.422,0,0,0,2.06,1.975,4.266,4.266,0,0,0,2.379.722A4.55,4.55,0,0,0,33.177-3.8,17.243,17.243,0,0,0,35.9-6.776,31.088,31.088,0,0,0,38.1-10.259a28.669,28.669,0,0,0,1.381-2.825,1.5,1.5,0,0,1,1.487-1.02,1.478,1.478,0,0,1,1.168.51,1.646,1.646,0,0,1,.446,1.1,1.5,1.5,0,0,1-.127.595q-.127.3-.616,1.359T40.569-8.071q-.786,1.4-1.827,2.952a18.09,18.09,0,0,1-2.336,2.825A13.559,13.559,0,0,1,33.623-.17,6.24,6.24,0,0,1,30.48.68a8.1,8.1,0,0,1-5.268-1.912A15.2,15.2,0,0,1,21.24-6.584a32.4,32.4,0,0,1-2.485-8.156,58.334,58.334,0,0,1-.85-10.323q0-1.4.042-3.292t.17-3.993q.127-2.1.382-4.333t.68-4.354H3.929a1.694,1.694,0,0,1-1.147-.4,1.359,1.359,0,0,1-.467-1.083,1.359,1.359,0,0,1,.467-1.083,1.694,1.694,0,0,1,1.147-.4H19.9a19.642,19.642,0,0,1,1-2.8,10.359,10.359,0,0,1,1.317-2.209,5.943,5.943,0,0,1,1.657-1.466,3.942,3.942,0,0,1,2.018-.531,3.221,3.221,0,0,1,1.848.531,4.479,4.479,0,0,1,1.338,1.466,8.266,8.266,0,0,1,.871,2.209,21.279,21.279,0,0,1,.489,2.8H52.145a1.694,1.694,0,0,1,1.147.4A1.359,1.359,0,0,1,53.759-42.523ZM21.771-16.058a55.636,55.636,0,0,0,2.315-6.053q1.041-3.25,1.784-6.563t1.147-6.5a46.914,46.914,0,0,0,.4-5.862H22.408a52.206,52.206,0,0,0-.956,6.521q-.361,3.887-.361,9.452,0,3.1.17,5.2A33.083,33.083,0,0,0,21.771-16.058Zm3.951-31.775q-.382,0-1.1.828a9.275,9.275,0,0,0-1.444,2.995h4.078a11.613,11.613,0,0,0-.616-2.8Q26.232-47.833,25.722-47.833ZM44.753-4.673A6.607,6.607,0,0,0,47.047-2.7a7.272,7.272,0,0,0,3.441.743,7.325,7.325,0,0,0,3.781-1,12.483,12.483,0,0,0,3.1-2.613,20.948,20.948,0,0,0,2.506-3.611q1.1-2,2-3.993a1.538,1.538,0,0,1,.595-.7,1.6,1.6,0,0,1,.85-.234,1.478,1.478,0,0,1,1.168.51,1.646,1.646,0,0,1,.446,1.1,1.329,1.329,0,0,1-.042.361,1.865,1.865,0,0,1-.127.319,30.847,30.847,0,0,1-6.393,9.728,11.458,11.458,0,0,1-7.838,3.356A10.187,10.187,0,0,1,45.688.191a10.16,10.16,0,0,1-3.356-2.8A11.817,11.817,0,0,1,40.378-6.5a15.29,15.29,0,0,1-.637-4.333,14.261,14.261,0,0,1,.531-3.993A10.085,10.085,0,0,1,41.8-18.012a7.368,7.368,0,0,1,2.379-2.124,6.164,6.164,0,0,1,3.037-.765,4.93,4.93,0,0,1,1.933.4,5.547,5.547,0,0,1,1.72,1.147A5.668,5.668,0,0,1,52.1-17.544a5.957,5.957,0,0,1,.467,2.421,8.945,8.945,0,0,1-.595,3.271,11,11,0,0,1-1.635,2.846,13.926,13.926,0,0,1-2.485,2.421A18.245,18.245,0,0,1,44.753-4.673ZM43.479-7.434a10.358,10.358,0,0,0,2.4-1.4,10.022,10.022,0,0,0,1.848-1.869,8.669,8.669,0,0,0,1.189-2.145,6.393,6.393,0,0,0,.425-2.273,2.673,2.673,0,0,0-.637-1.933,2.007,2.007,0,0,0-1.487-.658,3.056,3.056,0,0,0-1.954.637,4.813,4.813,0,0,0-1.317,1.657,8.567,8.567,0,0,0-.743,2.273,13.535,13.535,0,0,0-.234,2.485,9.377,9.377,0,0,0,.149,1.614Q43.266-8.2,43.479-7.434ZM66.333-17.459a21.3,21.3,0,0,1-.425,2.145q-.255,1-.489,1.742t-.4,1.211a2.809,2.809,0,0,1-.212.51,1.5,1.5,0,0,1-1.487.977,1.646,1.646,0,0,1-1.1-.446,1.432,1.432,0,0,1-.51-1.126.7.7,0,0,1,.085-.382,4.047,4.047,0,0,0,.255-.51,10.8,10.8,0,0,0,.425-1.274q.255-.892.637-2.761-.722,0-1.487-.042a4.629,4.629,0,0,1-1.423-.3,2.461,2.461,0,0,1-1.083-.807,2.454,2.454,0,0,1-.425-1.529A6.708,6.708,0,0,1,59.09-22a13.091,13.091,0,0,1,1.083-2.421,10.119,10.119,0,0,1,1.529-2.06,2.426,2.426,0,0,1,1.7-.871A2,2,0,0,1,65-26.635a5.138,5.138,0,0,1,.956,1.763,12,12,0,0,1,.489,2.188,15.805,15.805,0,0,1,.149,2q.722,0,1.423-.021t1.338-.021a5.638,5.638,0,0,1,3.7,1.062,4.3,4.3,0,0,1,1.274,3.483,17.128,17.128,0,0,1-.127,2.039q-.127,1.062-.3,2.188t-.3,2.23a18.894,18.894,0,0,0-.127,2.167,6.493,6.493,0,0,0,.425,2.528,4.611,4.611,0,0,0,1.062,1.593,3.633,3.633,0,0,0,1.359.828,4.314,4.314,0,0,0,1.317.234,5.7,5.7,0,0,0,3.441-1.189,16.2,16.2,0,0,0,2.974-2.867A27.657,27.657,0,0,0,86.49-9.983q1.083-1.869,1.805-3.271a1.5,1.5,0,0,1,.595-.595,1.638,1.638,0,0,1,.807-.212,1.492,1.492,0,0,1,1.189.489,1.612,1.612,0,0,1,.425,1.083,1.686,1.686,0,0,1-.17.765Q90.165-9.983,88.869-7.8a28.141,28.141,0,0,1-2.952,4.1A17.071,17.071,0,0,1,82.2-.467,8.233,8.233,0,0,1,77.676.85,7.355,7.355,0,0,1,74.787.276a6.724,6.724,0,0,1-2.358-1.657,8.049,8.049,0,0,1-1.593-2.676,10.206,10.206,0,0,1-.595-3.59,21.294,21.294,0,0,1,.425-4.227,20.285,20.285,0,0,0,.425-4.014A1.767,1.767,0,0,0,70.73-17.1a2.2,2.2,0,0,0-1.593-.4h-1.3Q67.14-17.5,66.333-17.459ZM63.487-20.6q0-.3-.021-.786t-.085-.956a5,5,0,0,0-.17-.807q-.106-.34-.234-.34t-.319.319q-.191.319-.4.765a8.4,8.4,0,0,0-.382.956q-.17.51-.255.85Z" transform="translate(128 272.161)"/></g></g></svg>