<svg xmlns="http://www.w3.org/2000/svg" xmlns:xlink="http://www.w3.org/1999/xlink" width="397.225" height="77.865" viewBox="0 0 397.225 77.865"><defs><style>.a{fill:none;stroke:#4cc1cb;stroke-width:2px;}.b{filter:url(#a);}</style><filter id="a" x="0" y="0" width="397.225" height="77.865" filterUnits="userSpaceOnUse"><feOffset dy="3" input="SourceAlpha"/><feGaussianBlur stdDeviation="3" result="b"/><feFlood flood-opacity="0.161"/><feComposite operator="in" in2="b"/><feComposite in="SourceGraphic"/></filter></defs><g class="b" transform="matrix(1, 0, 0, 1, 0, 0)"><path class="a" d="M-66.522,267.335h0a5.308,5.308,0,0,1,.895.1c5.487.94,16.44,16.77,34.019,16.869,26.757,0,35.022-18.835,35.022-31.546s-13.1-22.6-23.842-22.6-24.737,10.969-24.712,22.6,3.9,33.78,45.173,31.546,58.219-31.916,98.91-31.546,37.415,7.978,92.409,26.336c53.618,17.9,117.872,2.938,120.675,5.42" transform="translate(75.54 -223.16)"/></g></svg>