<svg xmlns="http://www.w3.org/2000/svg" width="18.594" height="25" viewBox="0 0 18.594 29.25"><defs><style>.a{fill:#707070;}.b{fill:none;stroke:#707070;stroke-width:3px;}</style></defs><g transform="translate(0 1.5)"><path class="a" d="M14.185,1.282V3.739H5.807V1.282c0-1.14-1.12-1.711-1.775-.905L.3,4.967a1.5,1.5,0,0,0,0,1.81l3.728,4.589c.655.806,1.775.235,1.775-.905V8h8.377v2.456c0,1.14,1.12,1.711,1.775.905l3.728-4.589a1.5,1.5,0,0,0,0-1.81L15.96.377c-.655-.806-1.775-.235-1.775.9Z" transform="translate(3.3 23.066) rotate(-90)"/><line class="b" y2="18.594" transform="translate(0) rotate(-90)"/><line class="b" y2="18.594" transform="translate(0 26.25) rotate(-90)"/></g></svg>