<svg xmlns="http://www.w3.org/2000/svg" width="34" height="20" viewBox="0 0 34 20"><defs><style>.a{fill:#707070;}.b{fill:none;stroke:#707070;stroke-width:3px;}</style></defs><g transform="translate(1.854 -0.011)"><path class="a" d="M17.62,11.638v2.643H6.25V11.638c0-1.227-1.205-1.842-1.91-.974L.328,15.6a1.611,1.611,0,0,0,0,1.948L4.34,22.49c.7.868,1.91.253,1.91-.974V18.873H17.62v2.643c0,1.227,1.205,1.842,1.91.974l4.012-4.939a1.611,1.611,0,0,0,0-1.948L19.53,10.664C18.825,9.8,17.62,10.411,17.62,11.638Z" transform="translate(3.427 -6.706)"/><line class="b" y2="20" transform="translate(30.646 0.011)"/><line class="b" y2="20" transform="translate(-0.354 0.011)"/></g></svg>