<svg xmlns="http://www.w3.org/2000/svg" width="31" height="31" viewBox="0 0 34.43 34.43"><defs><style>.a{fill:#707070;}</style></defs><path class="a" d="M9,29.25H30.188v3.973H9Z" transform="translate(-2.379 1.207)"/><path class="a" d="M18.99,21.638a2.648,2.648,0,1,0-.728-5.2l-5.52-4.031-.331.29,4.047,5.52a2.584,2.584,0,0,0-.116.77A2.646,2.646,0,0,0,18.99,21.638Z" transform="translate(-1.775 -1.775)"/><path class="a" d="M20.59,3.375A17.211,17.211,0,0,0,7.025,31.184h4.867l.331-.331,1.829-1.829-1.9-1.9-1.829,1.821a13.192,13.192,0,0,1-2.913-7.035H10V19.266H7.414a13.192,13.192,0,0,1,2.913-7.035l1.829,1.821,1.9-1.9-1.821-1.829a13.192,13.192,0,0,1,7.035-2.913V10h2.648V7.414a13.192,13.192,0,0,1,7.035,2.913l-1.821,1.829,1.9,1.9,1.829-1.821a13.192,13.192,0,0,1,2.913,7.035H31.184v2.648h2.582a13.192,13.192,0,0,1-2.913,7.035l-1.829-1.821-1.9,1.9,1.829,1.829.331.331h4.867A17.211,17.211,0,0,0,20.59,3.375Z" transform="translate(-3.375 -3.375)"/></svg>